<?xml version="1.0" standalone="no"?>
<!DOCTYPE svg PUBLIC "-//W3C//DTD SVG 20010904//EN"
 "http://www.w3.org/TR/2001/REC-SVG-20010904/DTD/svg10.dtd">
<svg version="1.0" xmlns="http://www.w3.org/2000/svg"
 width="500.000000pt" height="500.000000pt" viewBox="0 0 500.000000 500.000000"
 preserveAspectRatio="xMidYMid meet">
<metadata>
Created by potrace 1.11, written by Peter Selinger 2001-2013
</metadata>
<g transform="translate(0.000000,500.000000) scale(0.100000,-0.100000)"
fill="#000000" stroke="none">
<path d="M306 4989 c-62 -15 -153 -68 -197 -116 -22 -24 -55 -74 -72 -111
l-32 -67 0 -2196 0 -2195 37 -76 c45 -91 103 -147 196 -191 l67 -32 2196 0
2195 0 76 37 c91 45 147 103 191 196 l32 67 0 2195 0 2195 -32 67 c-44 93
-100 151 -191 196 l-76 37 -2175 2 c-1291 0 -2192 -3 -2215 -8z m2406 -1128
c141 -25 274 -67 404 -131 128 -62 164 -94 164 -148 0 -49 -47 -118 -94 -137
-41 -17 -58 -13 -186 49 -364 173 -717 181 -962 19 -120 -79 -181 -190 -181
-328 0 -105 27 -176 95 -251 104 -113 242 -185 613 -319 389 -141 547 -224
678 -359 146 -150 208 -380 162 -601 -39 -185 -168 -342 -357 -434 -187 -92
-388 -127 -668 -118 -259 8 -461 56 -667 158 -120 59 -163 95 -163 135 0 39
36 109 72 139 44 37 84 33 202 -21 246 -114 376 -144 616 -144 201 0 327 22
445 79 102 49 153 94 196 173 33 61 34 67 34 173 0 100 -3 115 -28 166 -74
153 -229 248 -644 395 -395 141 -547 219 -683 354 -145 143 -195 265 -194 470
1 107 5 137 27 206 82 248 310 418 642 478 120 21 340 20 477 -3z"/>
</g>
</svg>
