<svg xmlns="http://www.w3.org/2000/svg" viewBox="0 0 24 24"><title>docker</title><rect x="11.27" y="5.75" width="1.55" height="1.55" style="fill:#20b6ea"/><rect x="11.27" y="7.84" width="1.55" height="1.55" style="fill:#20b6ea"/><rect x="11.27" y="9.93" width="1.55" height="1.55" style="fill:#20b6ea"/><rect x="13.29" y="9.93" width="1.55" height="1.55" style="fill:#20b6ea"/><rect x="9.16" y="7.84" width="1.55" height="1.55" style="fill:#20b6ea"/><rect x="9.16" y="9.93" width="1.55" height="1.55" style="fill:#20b6ea"/><rect x="7.08" y="7.84" width="1.55" height="1.55" style="fill:#20b6ea"/><rect x="7.08" y="9.68" width="1.55" height="1.55" style="fill:#20b6ea"/><rect x="5.04" y="9.93" width="1.55" height="1.55" style="fill:#20b6ea"/><path d="M19.81,9.94A2.72,2.72,0,0,0,18.4,7.71c-1.17,1.42.1,3.38.1,3.38s-.91.81-3.5.81H2.92c-.17,3.83,2.29,6.48,7.73,6.48s8.42-4.83,9.08-6.6c.81.08,2.48-.15,3-1.46A3.87,3.87,0,0,0,19.81,9.94ZM9.08,14.33a.55.55,0,1,1-.55.55A.55.55,0,0,1,9.08,14.33ZM4.85,16a10.88,10.88,0,0,0,3.21-.29,4.89,4.89,0,0,0,2.27,2A7.39,7.39,0,0,1,4.85,16Z" style="fill:#20b6ea"/></svg>