<svg xmlns="http://www.w3.org/2000/svg" viewBox="0 0 24 24"><title>drill</title><path d="M17.12,19.52l-.66,0,0-.09q-.11-.72-.23-1.41l.57-2.52H15.72q-.16-.75-.34-1.46L16,12,14.82,12q-.24-.85-.5-1.63l.58-1.22h-1c-.24-.7-.49-1.35-.72-1.95l.44-1.25L12.71,6c-.3-.69-.57-1.28-.82-1.78l.48-1.34-1.19,0c-.21-.37-.33-.56-.33-.56l-4,1.81L7.23,5,9,4,7.57,5.83l0,.08L7.34,7.27l.82,0,.36.84L10.31,7,8.88,8.94,8.9,9l-.24,1.44.9,0,.26.54,1.82-.82L10.32,12h0L10,13.57l1.08,0,.32.57L13,13.22l-1.21,1.52,0,0-.21,1.38,1.13.13.42.65.88-.49-.53,1,0,.06-.18,1.3,1.08,0,.43.58.68-.49-.42.84c.49.64,1,1.3,1.57,2q-.08-.7-.17-1.37Z" style="fill:#7d7d7e"/></svg>