<svg xmlns="http://www.w3.org/2000/svg" viewBox="0 0 24 24"><title>elastic-search</title><path d="M9.63,10.47l4.85,2.22,4.9-4.3A5.47,5.47,0,0,0,9.5,4.21L8.69,8.44l.94,2Z" style="fill:#f3bd19"/><path d="M4.6,15.61a5.66,5.66,0,0,0-.11,1.1,5.5,5.5,0,0,0,10,3.09l.8-4.23-1.08-2.06L9.38,11.29,4.6,15.61Z" style="fill:#40beb1"/><path d="M4.56,7.2,7.89,8,8.63,4.2A2.59,2.59,0,0,0,7,3.66,2.63,2.63,0,0,0,4.56,7.2Z" style="fill:#e9478c"/><path d="M4.28,8a3.67,3.67,0,0,0-.16,6.91l4.67-4.23L7.94,8.85,4.28,8Z" style="fill:#2c468f"/><path d="M15.39,19.78a2.59,2.59,0,0,0,1.58.55A2.64,2.64,0,0,0,19.6,17.7a2.56,2.56,0,0,0-.16-.91L16.11,16l-.73,3.77Z" style="fill:#95c63f"/><path d="M16.06,15.14l3.66.85a3.67,3.67,0,0,0,.16-6.91l-4.8,4.19,1,1.87Z" style="fill:#1a6756"/></svg>