<svg xmlns="http://www.w3.org/2000/svg" viewBox="0 0 24 24"><title>hdfs</title><path d="M14.88,7a0,0,0,0,0,0-.06.05.05,0,0,0-.06,0c-.91.23-1.21.6-1.06,1.33a0,0,0,0,0,0,0h0a0,0,0,0,0,0,0A1.62,1.62,0,0,1,14.88,7Z" style="fill:#414042"/><path d="M16,12.39l-.22,0c-.34.06-.38.16-.43.47l0,.22,0,.24a.05.05,0,0,0,0,.06h0a.05.05,0,0,0,0,0c.08-.21.14-.37.2-.5s.09-.15.23-.23h0l.21-.1.21-.1a0,0,0,0,0,0-.06,0,0,0,0,0-.06,0Z" style="fill:#414042"/><path d="M10.8,7.11h0a.72.72,0,0,0-.6.27,5.9,5.9,0,0,0-.83,2.07.05.05,0,0,0,0,.06h0a0,0,0,0,0,0,0l.09-.21a5.93,5.93,0,0,1,.84-1.58l0,0c-.14.28-.11.43,0,.88a0,0,0,0,0,0,0h0a0,0,0,0,0,0,0A1.88,1.88,0,0,1,11,7.48L11,7.41a8.24,8.24,0,0,0,1-.32A0,0,0,0,0,12,7,.06.06,0,0,0,12,7Z" style="fill:#414042"/><path d="M16.73,8.82a1.89,1.89,0,0,0-.54.08.69.69,0,0,0-.05-.17.7.7,0,0,0-.3-.31,1.71,1.71,0,0,0,.31-.21,0,0,0,0,0,0-.06,0,0,0,0,0-.06,0,1.88,1.88,0,0,1-.43.12,1.39,1.39,0,0,0-.53.18,2.78,2.78,0,0,0-.47.5,3.73,3.73,0,0,1-.35.4,0,0,0,0,0,0,.06.05.05,0,0,0,.06,0,1.94,1.94,0,0,0,.44-.26.67.67,0,0,0,.06.2.68.68,0,0,0,.19.24,0,0,0,0,0,.07-.07l0-.06a.22.22,0,0,1,.4-.19h0a1.77,1.77,0,0,0-.33.33,1.54,1.54,0,0,0-.22.4,0,0,0,0,0,0,.06h0l0,0a3.67,3.67,0,0,1,1.74-1.12.05.05,0,0,0,0-.05,0,0,0,0,0,0,0Z" style="fill:#414042"/><path d="M22.11,8.71a5.8,5.8,0,0,0-.49-1.66.68.68,0,0,0-.13-.17A1.28,1.28,0,0,0,21,6.6a.71.71,0,0,0-.56,0,.46.46,0,0,0-.12.09,2.43,2.43,0,0,0-.27.35,1.83,1.83,0,0,1-.29.36,1.41,1.41,0,0,1-.38.21,3,3,0,0,0-.21-.41,4.29,4.29,0,0,0-.36-.48,2,2,0,0,0-.33-.31c-.12-.09-.24-.17-.36-.24a7.65,7.65,0,0,1-1-.76L16.73,5a3.75,3.75,0,0,0-2.2-1,5.37,5.37,0,0,0-2.45.54A3.58,3.58,0,0,0,11,5.29a6.31,6.31,0,0,0-.75.87,1.31,1.31,0,0,0-.41.09,1.71,1.71,0,0,0-.49.32L9,6.91l-.31.31a10.33,10.33,0,0,0-2.12.52A5.65,5.65,0,0,0,4.81,8.83a4.58,4.58,0,0,0-.61.66,4.77,4.77,0,0,0-.45.71l-.21.22,0-.14a1.59,1.59,0,0,0,0-.66.65.65,0,0,0-.2-.35v0L3.53,9l.06-.17a0,0,0,0,0,0,0,0,0,0,0,0,0,0l-.18,0a2.66,2.66,0,0,0-1.14.71,1.79,1.79,0,0,0-.33.47.92.92,0,0,0-.09.55.9.9,0,0,0,.25.46c0,.11.05.19.07.26a1.93,1.93,0,0,0,.1.26.82.82,0,0,0,.5.44,1,1,0,0,0,.45,0,4.64,4.64,0,0,0-.05.54,7.91,7.91,0,0,0,0,1q0,.12,0,.27c0,.08,0,.15,0,.23l-.09.25L3,14.58l-.62.61,0,0,0,0c-.22.21-.26.27-.2.63a2.18,2.18,0,0,0,.22.65,2.33,2.33,0,0,0,.42.56,2.94,2.94,0,0,0,1,.64,1.34,1.34,0,0,0,.58.1v0l-.11.26a.78.78,0,0,0,0,.69.92.92,0,0,0,.47.4,4.25,4.25,0,0,0,.67.21h0l.13,0h.05a5.56,5.56,0,0,0,1.08.21c.58,0,.92-.13,1-.51a2.28,2.28,0,0,0,.08-.41,2,2,0,0,0,0-.36,2.45,2.45,0,0,1,.27-.48l0-.07a.91.91,0,0,0,.17-.4,1.57,1.57,0,0,0,0-.42h0a7,7,0,0,0,.73,0H9c-.29.17-.37.48-.23.9a3.72,3.72,0,0,0,.43.85,3,3,0,0,0,.85,1,1,1,0,0,0,.55.16,1.43,1.43,0,0,0,.68-.2,1,1,0,0,0,.44-.46h0l.09-.15c.11-.07.35-.28.59-.47l.23-.19a.73.73,0,0,0,.22.09,2.81,2.81,0,0,0,.45.06h1.08a1.36,1.36,0,0,0,.67-.12.75.75,0,0,0,.34-.67,1.2,1.2,0,0,0,0-.35,1.1,1.1,0,0,0-.12-.29l0-.88a2.12,2.12,0,0,0-.06-.48,3.14,3.14,0,0,0-.16-.45l-.11-.29v0c-.05-.15-.11-.3-.19-.46l.08.08.23.23a3,3,0,0,0,.54.45,1.3,1.3,0,0,0,.74.18,1.73,1.73,0,0,0,.92-.35,1.52,1.52,0,0,0,.57-.76l0-.06.06-.19,0-.16a4.9,4.9,0,0,0,1.29,0,3.26,3.26,0,0,0,1.21-.35,3,3,0,0,0,1.21-1.18h0a4.63,4.63,0,0,0,.56-1.86A8.17,8.17,0,0,0,22.11,8.71ZM19.64,8A1.3,1.3,0,0,0,20,7.83a2.35,2.35,0,0,0,.37-.41,3,3,0,0,1,.26-.31.2.2,0,0,1,.19-.05l.07,0a2.24,2.24,0,0,1-1,1,.85.85,0,0,1-.55.06h0A.91.91,0,0,1,19.64,8ZM3.18,9.6h0a.29.29,0,0,1,.06.13l-.08,0Zm0,.62h0l.07.11.14.18h0l0,0a1.23,1.23,0,0,1-.37.24A1.12,1.12,0,0,0,3.22,10.22Zm-.64,1.07a3,3,0,0,1-.17-.52v0a.51.51,0,0,1-.16-.44,1.6,1.6,0,0,1,.69-.9,1.6,1.6,0,0,0-.07.18,1.88,1.88,0,0,0-.06.46.8.8,0,0,1-.27.69.05.05,0,0,0,0,.06l.07.14c.14.3.21.41.62.25A1.44,1.44,0,0,0,3.51,11l-.1.31,0,.06C3.14,11.49,2.73,11.6,2.58,11.29Zm1.86,5.87a.31.31,0,0,1-.24.13h0a2,2,0,0,1-1-.58,1.6,1.6,0,0,1-.46-.85c0-.17,0-.18.1-.3l.65-.65v0l.08-.22a8.89,8.89,0,0,0,1.06,2.2A.81.81,0,0,1,4.44,17.16Zm10.3-.84h0q0,.48,0,1v0a.49.49,0,0,1,.09.4c0,.36-.13.4-.42.4h-.27l-.82,0A1.67,1.67,0,0,1,13,18a6,6,0,0,0,1.11-1.8c.05-.17.11-.33.17-.49s.12-.34.17-.51a3.19,3.19,0,0,0,.12.34A1.83,1.83,0,0,1,14.73,16.32Zm6.95-5.68a3.42,3.42,0,0,1-1.49,2.62c-1.11.62-2.4.27-3.62-.14a2.41,2.41,0,0,1-.54-.28l-.08-.05a0,0,0,0,0-.05,0,.05.05,0,0,0,0,.05,1.54,1.54,0,0,1,0,.78,1.5,1.5,0,0,0-.06,1.06.5.5,0,0,0,.34.23.79.79,0,0,0,.65-.12,0,0,0,0,0,0-.06.05.05,0,0,0-.06,0,1.1,1.1,0,0,1-.52,0,.29.29,0,0,1-.17-.09l.15,0h0a.78.78,0,0,0,1-.43c0-.06,0-.11,0-.15a1.52,1.52,0,0,1,.08-.29l.18,0-.14.46A1.2,1.2,0,0,1,16.3,15h0a1.4,1.4,0,0,1-.91-.48l-.06-.05-.6-.53h0a4.5,4.5,0,0,1-1.45-.73.05.05,0,0,0-.07.07,2.65,2.65,0,0,0,1.07.85,6,6,0,0,1-.35,1.37c-.06.17-.12.35-.18.55a6.92,6.92,0,0,1-1.06,1.68c-.08,0-.34.26-.62.48s-.58.47-.67.52h0l-.1.15a1,1,0,0,1-.33.37c-.58.3-.95-.29-1.28-.81s-.38-.74-.33-.92a.21.21,0,0,1,.11-.14,8.81,8.81,0,0,0,.84-.51h0l.08.11.09.12a.05.05,0,0,0,.06,0,0,0,0,0,0,0-.05v-.05l0-.26a2.4,2.4,0,0,1,0-.52l0-.54a0,0,0,0,0,0-.05,0,0,0,0,0-.06,0,2.44,2.44,0,0,1-.1.27,2.54,2.54,0,0,0-.11.29l0,.15a6.17,6.17,0,0,1-2.28,0c0-.28-.11-.57-.16-.78a.06.06,0,0,0-.05,0,0,0,0,0,0,0,0c0,.17,0,.56,0,.9,0,.15,0,.29,0,.41a.91.91,0,0,1-.16.62l-.11.17a4.38,4.38,0,0,0-.29.51.05.05,0,0,0,0,0A1.66,1.66,0,0,1,7,19c0,.13-.27.3-1.45,0l-.1,0c-.27-.07-.68-.18-.79-.39a.28.28,0,0,1,0-.24A6.21,6.21,0,0,0,5,16.82a0,0,0,0,0,0,0,7.78,7.78,0,0,1-1.38-3.39,4.25,4.25,0,0,1,.16-2A5,5,0,0,1,5.21,9.2a5.35,5.35,0,0,1,3-1.32l-.72.83L7.3,9a6,6,0,0,0-.81,1.32,1.13,1.13,0,0,0,.11,1.49l.13.18a3.09,3.09,0,0,1,.56,1,2.49,2.49,0,0,0-.22.85.05.05,0,0,0,0,0,2.61,2.61,0,0,0,1.22.93A1.6,1.6,0,0,0,9.5,14.6l.5-.27a4.44,4.44,0,0,1,2-.72,0,0,0,0,0,0,0,4.85,4.85,0,0,0,.18-3A15,15,0,0,1,12,8.48a.05.05,0,0,0,0,0,.05.05,0,0,0-.05,0,5.07,5.07,0,0,0-.08,2.15,4,4,0,0,1-.14,2.59,4.75,4.75,0,0,0-1.85.72l-.49.26a1.24,1.24,0,0,1-.93.08,1.75,1.75,0,0,1-.83-.66,1.65,1.65,0,0,1,.26-.89c.3-.59.64-1.15,1-1.67a.05.05,0,0,0,0-.07.05.05,0,0,0-.07,0l-.32.38a11.32,11.32,0,0,0-.8,1,2.74,2.74,0,0,0-.41-.65L7,11.5a.76.76,0,0,1-.1-1l0-.06A4.49,4.49,0,0,1,7.7,9.21c.26-.28.52-.58.76-.87.39-.45.79-.92,1.23-1.35a1.24,1.24,0,0,1,.9-.42l.14,0c.46-.07.93-.16,1.42-.27a0,0,0,0,0,0-.06.05.05,0,0,0-.05,0c-.45,0-.88.06-1.27.07a3,3,0,0,1,1.34-1.1c1.71-.74,2.83-.89,4.27.31l.3.26c.22.19.43.37.65.54a1.42,1.42,0,0,0-.29.08.05.05,0,0,0,0,.1h0a1.64,1.64,0,0,1,.56,0l.16.1h0a1.47,1.47,0,0,1,.55.46,5.15,5.15,0,0,1,.42.68l-.11,0a.57.57,0,0,0-.17,0h-.05a.55.55,0,0,0-.29.08,2.17,2.17,0,0,1-.5.17.05.05,0,0,0,0,0,0,0,0,0,0,0,.05A.68.68,0,0,0,18,8a.58.58,0,0,0,0,.13.54.54,0,0,0,.06.3h0v0h0l-.15.06a.05.05,0,0,0,0,.06.06.06,0,0,0,.06,0,3.23,3.23,0,0,1,.91,0l0,.23h-.06a.67.67,0,0,0-.58,0,.82.82,0,0,0-.71.7,2.76,2.76,0,0,1-.2.49.05.05,0,0,0,0,.07.05.05,0,0,0,.07,0,2.3,2.3,0,0,0,.26-.42c.13-.26.23-.46.58-.54l.08,0a.65.65,0,0,0-.18.26,2.23,2.23,0,0,0-.11.6,1.85,1.85,0,0,1-.12.59,0,0,0,0,0,0,.06.05.05,0,0,0,.07,0,2.55,2.55,0,0,0,.23-.59,3,3,0,0,1,.18-.5.72.72,0,0,1,.42-.33h.08a2.93,2.93,0,0,1,0,.62,7.57,7.57,0,0,1-.17,1.08,0,0,0,0,0,0,.06.06.06,0,0,0,.06,0,2.63,2.63,0,0,0,.33-1l0-.18a3.15,3.15,0,0,0,0-1.24.4.4,0,0,1,0-.23l.12,0a1.22,1.22,0,0,0,.38.08.71.71,0,0,0,.24,0,1.59,1.59,0,0,0,1-1.18.66.66,0,0,1,.21.25A7.68,7.68,0,0,1,21.68,10.64Zm-3.25-2.3v0l-.26.07v0h0a.2.2,0,0,1,0-.1.15.15,0,0,1,.15-.14h0a.15.15,0,0,1,.1.06A.16.16,0,0,1,18.43,8.34Z" style="fill:#414042"/></svg>