<svg xmlns="http://www.w3.org/2000/svg" viewBox="0 0 24 24"><title>hive</title><path d="M12.93,7.09h0a8.1,8.1,0,0,0-2.17-.21h-.7a.05.05,0,0,0-.05,0A.05.05,0,0,0,10,7a10.66,10.66,0,0,0,1.06.18,5.11,5.11,0,0,1,1.64.4h-.08a1,1,0,0,0-.39,0,2.64,2.64,0,0,0-.47.22l-.21.11a0,0,0,0,0,0,.06,0,0,0,0,0,.06,0,1.91,1.91,0,0,1,.86,0l.38.06a1.91,1.91,0,0,1,.71.81,2.24,2.24,0,0,0,.41.56H14a.05.05,0,0,0,0-.06c-.09-.19-.17-.41-.25-.64A3.82,3.82,0,0,0,12.93,7.09Z" style="fill:#414042"/><path d="M16.8,6.24a4.54,4.54,0,0,0-1-1.43l0,0a0,0,0,0,0,0,0v0a1.87,1.87,0,0,0,.24.69,2.69,2.69,0,0,1,.51.75c.14.37.27.77.42,1.29a0,0,0,0,0,0,0h0a.05.05,0,0,0,0-.05,6.31,6.31,0,0,0-.14-.79C16.87,6.61,16.83,6.42,16.8,6.24Z" style="fill:#414042"/><path d="M15,11.55l0,0A1.38,1.38,0,0,1,16.19,11a.05.05,0,0,0,0-.05,0,0,0,0,0,0,0,2.89,2.89,0,0,0-1,0l0,0a1,1,0,0,0-.16.39l0,.14a0,0,0,0,0,0,.06Z" style="fill:#414042"/><path d="M14.73,15.26h0a.57.57,0,0,0-.29.52.05.05,0,0,0,0,0h.05l0,0c.32-.32.35-.35.77-.35h.14a0,0,0,0,0,0-.1A4.56,4.56,0,0,0,14.73,15.26Z" style="fill:#414042"/><path d="M16.53,12.81a.21.21,0,0,0,0,0,1.2,1.2,0,0,0-.08-.41l.21-.06a.05.05,0,0,0,0-.1,1.87,1.87,0,0,0-1.72.32.05.05,0,0,0,0,.06.06.06,0,0,0,.05,0l.38,0h0a1.42,1.42,0,0,0,.06.44l-.22.18a.05.05,0,0,0,0,.07l0,0h0A2.88,2.88,0,0,1,16.52,13l.39,0a0,0,0,0,0,0-.1Z" style="fill:#414042"/><path d="M21.12,13.07c-.22-.37-.4-.55-.57-.55h0a3.56,3.56,0,0,0-.6.23,1.73,1.73,0,0,1-.66.21,2.15,2.15,0,0,0,0-.85c-.15-.33-.33-.67-.49-1l-.14-.27a1,1,0,0,1-.05-.13,1.92,1.92,0,0,0-.37-.7l-.32-.29a.37.37,0,0,1,0-.06,2.26,2.26,0,0,1,0-.26l0-.13a8.39,8.39,0,0,1,.47-1.64l.06-.16.07-.14a.45.45,0,0,0,.08-.24,1.39,1.39,0,0,0-.22-.59l-.1-.2a8.13,8.13,0,0,0-.52-.92,4.06,4.06,0,0,0-1.68-1.61,3.94,3.94,0,0,0-1.37-.13,2.69,2.69,0,0,0-.91.31,4.09,4.09,0,0,0-.54.44,3.85,3.85,0,0,1-.46.38,9,9,0,0,1-1.11-.65l-.08-.05c-.59-.32-1.11-.58-1.6-.8a9.34,9.34,0,0,0-3.69-1h0A5.08,5.08,0,0,0,5.45,3c-.17.17-.31.34-.45.5a4.87,4.87,0,0,1-.79.79,1.26,1.26,0,0,1-.67.22h-.1a1.69,1.69,0,0,1-.43,0q-.4-.21-.79.26a6.74,6.74,0,0,0-.73,1.54A3.13,3.13,0,0,0,2.63,9.2a5.05,5.05,0,0,1,1.21,1.51,6,6,0,0,1,.3.71c.06.17.12.33.18.47v0c.05.1.07.11.21.14a5.29,5.29,0,0,0,.77.08l.4,0c.11,0,.36,0,.64,0l.15,0a5.82,5.82,0,0,0,.83-.19,5.3,5.3,0,0,0,.59-.19.77.77,0,0,0-.19.18,5.11,5.11,0,0,0-.9,3.71s0,0,0,0v.1a8.1,8.1,0,0,0,.49,2,5.72,5.72,0,0,0,.59,1.14l.2.25h0a7.19,7.19,0,0,0,2.07,1.65h0a8.16,8.16,0,0,0,2.09.79l.38,0a3.29,3.29,0,0,0,.83-.11c1-.32,3.19-1.07,3.21-1.08a0,0,0,0,0,0-.1h0a22.52,22.52,0,0,1-2.78.07h-.09a.78.78,0,0,1-.45-.15.48.48,0,0,1-.06-.13l.11,0A2.74,2.74,0,0,1,14,20a0,0,0,0,0,0,0,.05.05,0,0,0,0-.05c-.68-.07-.68-.07-.72-.18s-.17-.41-.29-.65c.63,0,1,0,1.2-.2a.05.05,0,0,0,0-.08,3.82,3.82,0,0,1-.77,0,2.25,2.25,0,0,1-.38-.11l-.18-.06-.12,0-.06-.14a2.49,2.49,0,0,1-.1-.24,2.33,2.33,0,0,1-.11-.64,2,2,0,0,0,.87.57h0a1.52,1.52,0,0,0,.88.09l.08,0h0a.05.05,0,0,0,0-.08h0a.78.78,0,0,1-.3,0,1.89,1.89,0,0,1-.92-.66l-.06-.07-.31-.47c.08-.15.12-.15.23-.16l.16,0a1.87,1.87,0,0,0,.64,0l.09.21a1.3,1.3,0,0,0,.5.7h0c1.24.37,1.56-.09,1.85-.5h0a2.82,2.82,0,0,0,3.42,0A6.93,6.93,0,0,0,21.12,13.07Zm-3.31-2.81c0-.05,0-.1,0-.14a.22.22,0,0,1,0,.08,6.59,6.59,0,0,0,.42,1H18a.05.05,0,0,0,0,0,.05.05,0,0,0,0,.06l.33.09c.18.37.35.68.37.71a1.14,1.14,0,0,1,.12.64s0,.07,0,.11h0c-.06-.25-.35-.25-.58-.25h0L18,12.56a0,0,0,0,0-.06,0,.05.05,0,0,0,0,.06.34.34,0,0,0,.11.06s.08,0,.08,0,0,0,0,0A.37.37,0,0,0,18,13v0l0,.06v0h-.08a0,0,0,0,0,0,0,.05.05,0,0,0,0,.05l.16.06.49.19h.05l-.07.19-.08,0v-.08a.05.05,0,0,0,0,0,2.12,2.12,0,0,0-.89-.12,3.39,3.39,0,0,0-.42.54L17,14a0,0,0,0,0,0,.06.05.05,0,0,0,.07,0l.19-.17a1,1,0,0,1,.44-.3l.18,0,0,0a4.74,4.74,0,0,0-.4.61l-.17.29a0,0,0,0,0,0,.07,0,0,0,0,0,.07,0,2.6,2.6,0,0,0,.22-.28,1.67,1.67,0,0,1,.54-.52.9.9,0,0,1,.35,0,2.79,2.79,0,0,1-.14.32l-.06.13a2.67,2.67,0,0,1-.3.49l-.17.24a0,0,0,0,0,0,.07h0l0,0a5.58,5.58,0,0,1,.43-.49c.05-.05.11-.11.25-.28h0c.13-.3.26-.64.4-1h0a.05.05,0,0,0,0,.06.78.78,0,0,0,.61.31l.23,0a1.25,1.25,0,0,0,.64-.35l.1-.1a0,0,0,0,0,0-.07,0,0,0,0,0-.06,0l-.45.22c-.54.17-.69.1-.85,0l-.13-.06h.54a1.17,1.17,0,0,0,.45-.19.69.69,0,0,1,.38-.14.13.13,0,0,1,.11,0,.74.74,0,0,1,.13.42,5.94,5.94,0,0,1-.47,1.76c-.51,1-1.11,1.93-1.94,2.06a2.46,2.46,0,0,1-1.83-.4l-.27-.15h0a5.12,5.12,0,0,1-1.13-1.14,0,0,0,0,0-.05,0,0,0,0,0,0,0,0,2.18,2.18,0,0,1-.51.93l-.13.17c-.07.11-.07.24.13.53a1.24,1.24,0,0,1-.43-.6h0l-.12-.23a5.4,5.4,0,0,0-.29-.51h0a1.35,1.35,0,0,1-.31-2l0,0a.05.05,0,0,0,0,0l0,0c-.62-.16-1.39-.48-1.49-.87a5.49,5.49,0,0,1,.09-2.53.05.05,0,0,0,0,0,0,0,0,0,0,0,0l-.09,0a21.64,21.64,0,0,0-2.41.61h0a8.73,8.73,0,0,0-1.24.46l-.51.16c-.31.1-.64.2-1,.3a2.35,2.35,0,0,1-.6,0,7.26,7.26,0,0,0-.87,0H4.66a3.23,3.23,0,0,1-.35-.83A3.09,3.09,0,0,0,4,10.11a4.62,4.62,0,0,0-.48-.53l-.08-.08A4.71,4.71,0,0,1,2,7.5l0-.13a2.25,2.25,0,0,1-.06-.89A3.35,3.35,0,0,1,2.76,5,8.08,8.08,0,0,1,4,5.11h.07a4.14,4.14,0,0,1,.8.19c.9.33,2.1.89,2.11.9a0,0,0,0,0,.07,0,.05.05,0,0,0,0-.07l-.62-.35A8.33,8.33,0,0,0,4.5,4.85a.16.16,0,0,1-.12-.06A3.81,3.81,0,0,0,5.54,3.65,5.06,5.06,0,0,1,6.1,3l.11,0a1.5,1.5,0,0,1,.51-.16A12.6,12.6,0,0,1,11.1,4.41l.42.23.59.31.69.36a5.8,5.8,0,0,1,1.68,1.31,15.1,15.1,0,0,1,.75,2.05,5.33,5.33,0,0,0,.28,1,.06.06,0,0,0,.06,0,.05.05,0,0,0,0-.06A6,6,0,0,1,15.5,9a1.73,1.73,0,0,0,.53.11.05.05,0,0,0,0,0A0,0,0,0,0,16,9c-.16-.08-.57-.33-.63-.53-.12-.43-.25-1-.34-1.42a4,4,0,0,0-.21-.83,7.52,7.52,0,0,0-1.44-1.11A1.81,1.81,0,0,1,13.17,5l.07-.07a4.13,4.13,0,0,1,.4-.38l.09-.07a1.51,1.51,0,0,1,.43-.27,1.59,1.59,0,0,1,1.38,0c.14.06.24.1.31,0a.05.05,0,0,0,0-.07l-.07-.08.16,0,.17.05A8.88,8.88,0,0,1,18,6.55a1,1,0,0,1,.12.72,5.4,5.4,0,0,1-.18.7,10,10,0,0,0-.42,1.26,2.72,2.72,0,0,0,.23,1.23,0,0,0,0,0,.06,0,0,0,0,0,0,0,0C17.82,10.37,17.82,10.31,17.82,10.26Zm-2.79,7-.14-.1a1,1,0,0,0,.45,0,.32.32,0,0,0,.21-.18.68.68,0,0,1,.21-.29l.13.17a1.46,1.46,0,0,1-.87.44l0,0A.05.05,0,0,0,15,17.28Zm-3,0a2.66,2.66,0,0,0-.15.83c-2.7-.58-3.49-1.28-4.24-2-.16-.15-.34-.29-.52-.44a6.07,6.07,0,0,1,0-1.8A6.66,6.66,0,0,0,12,17.28Zm-2.17-2,0,0a4.42,4.42,0,0,1-1.74-3.33l.07-.06a3.72,3.72,0,0,1,1.25-.54,18.74,18.74,0,0,0,2,4.42l.13.17a1.9,1.9,0,0,0,.73.65l-.09.21A17.33,17.33,0,0,1,9.81,15.23Zm2.27,3.86h.09c.12.21.27.44.45.72a7,7,0,0,1-4.27-.74l-.1-.1a5.4,5.4,0,0,1-.7-1.29A9.92,9.92,0,0,0,12.08,19.09ZM10.8,20.8A5.49,5.49,0,0,0,13,20.46a1.77,1.77,0,0,0,.18.27l0,0c.15.2.2.35.14.45s-.89.19-1.3.12a4.93,4.93,0,0,1-1.46-.53Z" style="fill:#414042"/></svg>