<svg xmlns="http://www.w3.org/2000/svg" viewBox="0 0 24 24"><title>impala</title><path d="M8.37,9.49a5,5,0,0,1,1.84,3.67c0,.14,0,.18.18.15a1.05,1.05,0,0,0,.84-1A3.49,3.49,0,0,0,10.9,11,7.83,7.83,0,0,0,9.32,8.82a.73.73,0,0,1-.23-.45C9,8,9,7.57,8.92,7.16v-1A1.1,1.1,0,0,0,9,6a7.29,7.29,0,0,1,1-3.22s.06-.09,0-.15l-.09.08A7.36,7.36,0,0,0,8.13,9.08.73.73,0,0,0,8.37,9.49Z" style="fill:#316797"/><path d="M9.64,15.16a.43.43,0,0,1,.45.38.37.37,0,0,0,.39.28.28.28,0,0,1,.29.22c.09.24.19.47.29.71s.06.26.2.32h0a4,4,0,0,0-.44-1.79A.7.7,0,0,0,9.64,15.16Z" style="fill:#316797"/><path d="M8.13,11.34c-.13.06-.07.16-.05.24A2.9,2.9,0,0,0,9.5,13.41a7.2,7.2,0,0,0-1.14-2C8.3,11.37,8.24,11.29,8.13,11.34Z" style="fill:#316797"/><path d="M15.94,10.46s0,.06-.07.1a6.7,6.7,0,0,0-.65.89,9.16,9.16,0,0,1-1.13,1.34c-.12.12-.27.23-.44.13s-.13-.27-.1-.42a3,3,0,0,1,.21-.77,6.7,6.7,0,0,1,1.69-2.2A.85.85,0,0,0,15.74,9a7.38,7.38,0,0,0-1.45-5.9.69.69,0,0,0-.36-.3,8.21,8.21,0,0,1,.92,2.76,10.34,10.34,0,0,1,0,2.6,1.39,1.39,0,0,1-.45.84,7.34,7.34,0,0,0-1.46,2A2.49,2.49,0,0,0,13,13.65c.07.1.12.21.19.32a1.17,1.17,0,0,1,0,1.38,4,4,0,0,0-.56,3.32.8.8,0,0,1-.27.86c-.15.13-.26.19-.4,0a.86.86,0,0,0-.15-.16c-.1-.08-.22-.27-.31-.17s0,.3.14.42l.1.07a.55.55,0,0,1,.4.49c0,.27-.22.35-.42.45.11.16.35,0,.42.23a.84.84,0,0,1,0,.51,1.53,1.53,0,0,0,1.16-1,13.36,13.36,0,0,0,.81-4.1,1.41,1.41,0,0,1,.6-1.05c.14-.11.11-.16,0-.24a.64.64,0,0,1-.21-1,2,2,0,0,1,.59-.62,2.39,2.39,0,0,0,1-2c0-.28,0-.57,0-.85C16,10.52,16,10.44,15.94,10.46Z" style="fill:#316797"/><polygon points="11.26 17.07 11.26 17.07 11.26 17.07 11.26 17.07" style="fill:#316797"/></svg>