<svg xmlns="http://www.w3.org/2000/svg" viewBox="0 0 24 24"><title>java-scala</title><path d="M9.11,16.37a.12.12,0,0,0,.05-.16A.13.13,0,0,0,9,16.14c-.62.17-1,.4-1,.67a.51.51,0,0,0,.24.51,5.54,5.54,0,0,0,3,.68,9,9,0,0,0,3.51-.69.12.12,0,0,0,0-.23,7,7,0,0,1-1.06-.52.14.14,0,0,0-.09,0,11.12,11.12,0,0,1-4,.17C9,16.65,9,16.53,9,16.53S9,16.42,9.11,16.37Z" style="fill:#5382a1"/><path d="M15.19,15.11A.13.13,0,0,0,15.1,15a2.21,2.21,0,0,1-.76-.46.14.14,0,0,0-.11,0,15.75,15.75,0,0,1-5.2.25c-.41,0-.58-.14-.6-.21s.11-.24.22-.32a.12.12,0,0,0,0-.16A.12.12,0,0,0,8.54,14c-.85.28-1.23.6-1.12,1,.19.61,1.55.86,3.18.86a17.46,17.46,0,0,0,4.5-.58A.13.13,0,0,0,15.19,15.11Z" style="fill:#5382a1"/><path d="M11.63,8a2.7,2.7,0,0,0,.8,2.6,1.18,1.18,0,0,1,.33.88,1.68,1.68,0,0,1-.56,1,.12.12,0,0,0,.08.22h.06c.06,0,1.37-.72,1.61-1.74a1.46,1.46,0,0,0-.27-1.23l-.13-.18c-.42-.58-.75-1-.64-1.55.15-.7,1.13-1.54,3.18-2.73a.13.13,0,0,0,.05-.15A.12.12,0,0,0,16,5C15.85,5,12.27,5.95,11.63,8Z" style="fill:#f89823"/><path d="M14.08,19.7c2.27-.27,3.84-.81,4-1.36,0-.16,0-.4-.43-.61a.13.13,0,0,0-.16,0,.12.12,0,0,0,0,.16.24.24,0,0,1,.08.19c0,.07-.1.24-.65.4-2.12.64-9.09.89-11.07,0-.11,0-.13-.08-.13-.08s.63-.39,1.13-.5a2.6,2.6,0,0,1,.64-.07.13.13,0,0,0,.13-.08.12.12,0,0,0,0-.14c-.53-.37-2.18.09-2.9.57-.33.22-.47.43-.43.64s.41.45,1.08.55a33.41,33.41,0,0,0,5.34.43A28.55,28.55,0,0,0,14.08,19.7Z" style="fill:#5382a1"/><path d="M9.85,13.74a22,22,0,0,0,5.1-.54l0,0a6.18,6.18,0,0,1,.87-.47.13.13,0,0,0,.07-.15.12.12,0,0,0-.14-.09s-1.49.26-2.94.39a26.31,26.31,0,0,1-4.68.05c-.57-.08-.66-.17-.66-.17A4.88,4.88,0,0,1,9.44,12a.12.12,0,0,0,0-.25,6.78,6.78,0,0,0-3.15.74c-.34.17-.48.35-.41.54C6,13.5,7.79,13.74,9.85,13.74Z" style="fill:#5382a1"/><path d="M16.07,12.16a.12.12,0,0,0,.14,0,2.68,2.68,0,0,1,.4-.11,1.12,1.12,0,0,1,1.24.68c.28.78-.51,1.75-2.11,2.58a.15.15,0,0,0-.06.07l0,0a.13.13,0,0,0,0,.15.12.12,0,0,0,.11.07h0c2.43-.64,3-1.68,3.16-2.24a1.4,1.4,0,0,0-.44-1.4,2,2,0,0,0-2-.32.79.79,0,0,0-.38.29A.12.12,0,0,0,16.07,12.16Z" style="fill:#5382a1"/><path d="M11.57,12a.12.12,0,0,0,.08,0l.07,0a.13.13,0,0,0,0-.15,6.9,6.9,0,0,0-.69-1.12c-.88-1.26-1.72-2.44.65-4.31,1.59-1.25,2.43-2.49,2.5-3.67A2.28,2.28,0,0,0,13.67,1a.13.13,0,0,0-.21.12C14,3.22,12.6,4.3,11.14,5.45a8.62,8.62,0,0,0-1.9,1.82C8.25,8.76,9.77,10.33,11.57,12Z" style="fill:#f89823"/><path d="M18.88,18.73a.13.13,0,0,0-.15.07s-.32.59-2.82,1.06A28.71,28.71,0,0,1,7,20a.13.13,0,0,0-.13.07.13.13,0,0,0,0,.15s.55.4,2.84.55c.62,0,1.3.06,2,.06,3.28,0,7.08-.48,7.19-2A.12.12,0,0,0,18.88,18.73Z" style="fill:#5382a1"/></svg>