<svg xmlns="http://www.w3.org/2000/svg" viewBox="0 0 24 24"><title>jupyter</title><path d="M13.21,4.18a8,8,0,0,0-8.44,5,.13.13,0,0,0,.2.14,10.11,10.11,0,0,1,7.21-2.58h0A9.87,9.87,0,0,1,19.43,9.4a.13.13,0,0,0,.09,0l.07,0a.12.12,0,0,0,.05-.15A7.94,7.94,0,0,0,13.21,4.18Z" style="fill:#e87a35"/><path d="M19.33,15A10,10,0,0,1,12.2,17.5h0A10,10,0,0,1,5,14.89.13.13,0,0,0,4.8,15a7.8,7.8,0,0,0,7.38,5.11h.46c3.11-.17,6.79-2.87,6.91-5.07a.12.12,0,0,0-.21-.1Z" style="fill:#e87a35"/><path d="M5.25,5.67a.85.85,0,0,0,.86-.89A.86.86,0,0,0,5.24,4h0a.87.87,0,0,0-.86.85.85.85,0,0,0,.25.61.88.88,0,0,0,.63.26Z" style="fill:#82807f"/><circle cx="17.48" cy="3.44" r="1.35" style="fill:#82807f"/><circle cx="6.15" cy="20.56" r="1.43" style="fill:#82807f"/></svg>