<svg xmlns="http://www.w3.org/2000/svg" viewBox="0 0 24 24"><title>kafka</title><path d="M17.46,13.68a2.47,2.47,0,0,0-3.07-.35c-.2.12-.38.27-.56.4-1-.46-1-.46-.94-1.47a2.23,2.23,0,0,0,0-.71c-.1-.41-.17-.73.32-1s.67-.31,1.11,0a2.42,2.42,0,0,0,3.25-.34A2.57,2.57,0,0,0,17.72,7a2.52,2.52,0,0,0-3.13-.72,2.31,2.31,0,0,0-1.36,2.54c.08.61-.36.73-.71.88a1.06,1.06,0,0,1-.73-.15c-.51-.25-1-.55-1.54-.85A1.19,1.19,0,0,1,11,7.15a2.36,2.36,0,0,0,1.1-2.81A2.6,2.6,0,0,0,9.62,2.54,2.53,2.53,0,0,0,7.24,4.33,2.35,2.35,0,0,0,8.33,7.15c.91.39.86,1,.73,1.69a3.13,3.13,0,0,0-2.6,2.95,3,3,0,0,0,.44,1.8,15.5,15.5,0,0,0,2.21,1.94c0,.75,0,.75-.82,1.31a2.51,2.51,0,0,0,1.37,4.62,2.59,2.59,0,0,0,2.44-1.82A2.37,2.37,0,0,0,11,16.83a1.15,1.15,0,0,1-.73-1.52c.61-.37,1.13-.71,1.68-1a.76.76,0,0,1,.55-.06,1.05,1.05,0,0,1,.75,1.26,2.38,2.38,0,0,0,1.91,2.41,2.51,2.51,0,0,0,2.33-4.24ZM15.76,7.4a1.14,1.14,0,0,1,1.09,1.21,1.23,1.23,0,0,1-1.17,1.08,1.25,1.25,0,0,1-1.15-1.2A1.17,1.17,0,0,1,15.76,7.4ZM8.5,5A1.18,1.18,0,0,1,9.72,3.91a1.2,1.2,0,0,1,1.09,1.15A1.16,1.16,0,0,1,9.63,6.19,1.15,1.15,0,0,1,8.5,5Zm2.3,13.9a1.15,1.15,0,0,1-2.3.1,1.15,1.15,0,0,1,1.1-1.21A1.16,1.16,0,0,1,10.81,18.91ZM9.6,13.66A1.66,1.66,0,1,1,11.33,12,1.67,1.67,0,0,1,9.6,13.66Zm6.1,2.95a1.17,1.17,0,0,1-1.16-1.08,1.25,1.25,0,0,1,1.14-1.21,1.23,1.23,0,0,1,1.19,1.15A1.13,1.13,0,0,1,15.69,16.6Z"/></svg>