<svg xmlns="http://www.w3.org/2000/svg" viewBox="0 0 24 24"><title>mongo</title><path d="M12,18.58a2.5,2.5,0,0,1-.48,1l0,0c.41.49.26,2.1.34,2.35s.51.23.51.23a11.94,11.94,0,0,1,.36-2.72A1.88,1.88,0,0,1,12,18.58Z" style="fill:#a2a17d"/><path d="M11.17,19.24a3.32,3.32,0,0,0,.57-2.08c0-1,.06-4.09.06-7.36,0-3-.06-5.65-.1-8a14.07,14.07,0,0,0-3.62,5.1,10.68,10.68,0,0,0,3,12.33S11.13,19.23,11.17,19.24Z" style="fill:#45aa4b"/><path d="M16,7.58c-1.21-3.5-2.58-3.87-3.75-5.71h-.06c0,1.61.07,4.77.08,7.83q0,3.62,0,7.85a1.56,1.56,0,0,0,.91,1.58,8.17,8.17,0,0,0,2.39-3A10,10,0,0,0,16,7.58Z" style="fill:#228c44"/></svg>