<svg xmlns="http://www.w3.org/2000/svg" viewBox="0 0 24 24"><title>mysql</title><path d="M20.71,20.32,20.35,20a5.78,5.78,0,0,0-1.26-1.22c-.39-.27-1.24-.63-1.39-1.08l0,0a4.87,4.87,0,0,0,.84-.2c.41-.11.79-.08,1.21-.19l.58-.17V17c-.22-.22-.38-.51-.61-.71a16.22,16.22,0,0,0-2-1.49c-.38-.24-.86-.4-1.26-.61-.14-.07-.39-.11-.47-.23a4.86,4.86,0,0,1-.5-.93c-.35-.67-.69-1.4-1-2.11a13,13,0,0,0-.62-1.38A12.21,12.21,0,0,0,9.17,5a5.81,5.81,0,0,0-1.55-.5l-.91,0A4.84,4.84,0,0,1,6.15,4c-.69-.44-2.47-1.38-3-.13-.33.79.48,1.56.76,2a5.68,5.68,0,0,1,.62.91c.08.21.11.42.19.64A14.43,14.43,0,0,0,5.37,9a5.73,5.73,0,0,0,.45.75c.1.13.27.19.3.41a3.47,3.47,0,0,0-.28.91,5.34,5.34,0,0,0,.35,4.07c.19.3.65,1,1.27.71s.42-.91.58-1.51c0-.15,0-.24.08-.34v0c.17.34.34.67.5,1a6.92,6.92,0,0,0,1.58,1.62c.29.22.52.59.88.73v0h0a1.33,1.33,0,0,0-.28-.24,6,6,0,0,1-.63-.73A15.5,15.5,0,0,1,8.8,14.19c-.19-.38-.36-.79-.52-1.16-.07-.14-.07-.36-.19-.44a4.54,4.54,0,0,0-.58.82,6.85,6.85,0,0,0-.34,1.83s0,0,0,0c-.39-.1-.52-.5-.67-.83a5.24,5.24,0,0,1-.11-3.24c.08-.25.45-1.05.3-1.3s-.32-.36-.45-.55a4.8,4.8,0,0,1-.44-.78C5.47,7.9,5.33,7.15,5,6.47a6.47,6.47,0,0,0-.61-.93,6,6,0,0,1-.67-.94c-.06-.13-.15-.35,0-.5a.19.19,0,0,1,.17-.16c.16-.13.61,0,.76.11a6.15,6.15,0,0,1,1.2.61c.17.12.35.35.57.41h.25c.39.08.82,0,1.19.13A7.75,7.75,0,0,1,9.58,6a10.75,10.75,0,0,1,3.78,4.14c.15.28.21.53.34.82.25.6.57,1.2.82,1.78a8,8,0,0,0,.86,1.62c.18.25.91.39,1.24.52a8.69,8.69,0,0,1,.84.34c.41.25.82.55,1.21.82.19.15.8.45.84.69a5.6,5.6,0,0,0-2.35.34c-.18.07-.47.07-.5.3s.11.25.19.39a2.83,2.83,0,0,0,.63.74c.25.19.51.39.78.56.47.29,1,.46,1.47.75.27.17.53.39.8.57s.22.25.39.31v0C20.82,20.6,20.8,20.44,20.71,20.32Z" style="fill:#6a7e91;fill-rule:evenodd"/><path d="M6.65,6.31v0h0a4.09,4.09,0,0,0,.39.5l.28.58,0,0a.68.68,0,0,0,.26-.61,2.73,2.73,0,0,1-.15-.25c-.07-.12-.23-.18-.33-.28A1.93,1.93,0,0,0,6.65,6.31Z" style="fill:#6a7e91;fill-rule:evenodd"/></svg>