<svg xmlns="http://www.w3.org/2000/svg" viewBox="0 0 24 24"><title>postgre-sql</title><path d="M17.85,7.72c-1.11-.13-1.56.12-1.74.37-.59.85.57,2.92,1.06,3.81.13.23.22.39.26.49a2.47,2.47,0,0,0,.16.29,3.83,3.83,0,0,0,.16-2.15,7.16,7.16,0,0,1-.07-1.07,7.44,7.44,0,0,1,.1-.94A6,6,0,0,0,17.85,7.72Zm-.64.64a.58.58,0,0,1-.33.18h-.06a.48.48,0,0,1-.45-.3c0-.14.21-.25.45-.28s.49,0,.51.15A.36.36,0,0,1,17.21,8.35Z" style="fill:#010101"/><path d="M11.38,14.44c-.15-.06-.24-.1-.43.11h0c-.12.14-.22.25-.29.36-.35.44-.51.59-1.54.8a1.85,1.85,0,0,0-.4.12,1.26,1.26,0,0,0,.38.16,2.25,2.25,0,0,0,2.54-.81.42.42,0,0,0,0-.36A.6.6,0,0,0,11.38,14.44Z" style="fill:#010101"/><path d="M7.82,11a11.6,11.6,0,0,0,.06-2.34c0-.13,0-.22,0-.28h0A7.06,7.06,0,0,1,9.45,3.73l0,0c-1-.32-3.45-1-5,.1-.92.65-1.34,1.87-1.26,3.61a25.53,25.53,0,0,0,1,4.47c.69,2.26,1.47,3.69,2.15,3.91.1,0,.42.14.87-.41.65-.78,1.26-1.45,1.54-1.74a2.74,2.74,0,0,1-.21-.18A3,3,0,0,1,7.82,11Z" style="fill:#010101"/><path d="M10.73,12.9l0-.11c.05-.15.12-.29.19-.44a5.2,5.2,0,0,0,.27-3.8.86.86,0,0,0-.67-.75,3.13,3.13,0,0,0-2.12.62V8.6a12.12,12.12,0,0,1-.06,2.46,2.4,2.4,0,0,0,.63,2,2,2,0,0,0,1.45.64A7.42,7.42,0,0,1,10.73,12.9ZM10,8.52a.35.35,0,0,1-.08-.23A.18.18,0,0,1,10,8.17a.71.71,0,0,1,.49-.07,1,1,0,0,1,.33.1c.15.09.17.18.16.23a.53.53,0,0,1-.5.34H10.4A.64.64,0,0,1,10,8.52Z" style="fill:#010101"/><path d="M17.53,13.62a3.94,3.94,0,0,1-.63-1c0-.07-.12-.24-.23-.43-.59-1.06-1.83-3.27-1-4.41C16,7.24,16.73,7,17.8,7.13a6.38,6.38,0,0,0-1.15-2,5.5,5.5,0,0,0-4.2-2,3.42,3.42,0,0,0-2.59,1,6,6,0,0,0-1.39,3.6l.16-.09A4.14,4.14,0,0,1,10,7.22a1.48,1.48,0,0,1,1.79,1.21,5.76,5.76,0,0,1-.3,4.16c-.06.14-.12.27-.17.4l0,.11a6.79,6.79,0,0,0-.24.74.89.89,0,0,1,.57.07,1.15,1.15,0,0,1,.63.75,1.06,1.06,0,0,1,0,.17s0,.05,0,.09a22.62,22.62,0,0,0,.22,5,1.53,1.53,0,0,0,2,1.11,2,2,0,0,0,1.85-1.87c.15-.9.46-3.45.5-4h0c0-1.06.53-1.27.85-1.36Z" style="fill:#010101"/><path d="M21.82,14a1,1,0,0,0-.83-.67,1.9,1.9,0,0,0-.66,0,6,6,0,0,1-1,.13,19.71,19.71,0,0,0,2.09-5c.69-2.68.32-3.9-.11-4.45a6,6,0,0,0-4.83-2.27,8.56,8.56,0,0,0-2.51.35A9.35,9.35,0,0,0,12.48,2a4.77,4.77,0,0,0-2.56.63,11.67,11.67,0,0,0-1.8-.45,5.59,5.59,0,0,0-4.23.67c-1.26.89-1.84,2.44-1.74,4.59a26.4,26.4,0,0,0,1,4.75A16.4,16.4,0,0,0,4.28,15,3.48,3.48,0,0,0,6.06,16.9a1.74,1.74,0,0,0,1.73-.37,1.51,1.51,0,0,0,.36.31,2.42,2.42,0,0,0,.69.29,3.68,3.68,0,0,0,2.4-.14c0,.12,0,.24,0,.35s0,.33,0,.48a8.46,8.46,0,0,0,.32,2.4l0,.13a2.89,2.89,0,0,0,.72,1.27,2.15,2.15,0,0,0,1.52.56,3.41,3.41,0,0,0,.71-.08,3.34,3.34,0,0,0,2.24-1.3,7.45,7.45,0,0,0,.93-4.09l0-.16v-.11h.17a5.49,5.49,0,0,0,2.3-.4C20.7,15.84,22.17,15.06,21.82,14ZM20,15.5a4.8,4.8,0,0,1-1.83.35,2.56,2.56,0,0,1-.8-.12c-.1.95-.32,2.74-.45,3.5a2.52,2.52,0,0,1-2.29,2.33,3.19,3.19,0,0,1-.67.08,2.07,2.07,0,0,1-2-1.53A17.26,17.26,0,0,1,11.68,16a2.64,2.64,0,0,1-1.82.68A3.74,3.74,0,0,1,9,16.54c-.09,0-.88-.24-.87-.74s.67-.6.92-.65c.88-.18.93-.25,1.2-.6l.2-.24v0A2.52,2.52,0,0,1,9.28,14c-.22.24-.87.93-1.57,1.78a1.49,1.49,0,0,1-1.14.64,1.12,1.12,0,0,1-.36-.06C5.33,16,4.49,14.59,3.71,12a25.78,25.78,0,0,1-1-4.61c-.1-2,.41-3.33,1.5-4.11A5.07,5.07,0,0,1,8,2.74a10.83,10.83,0,0,1,2,.52,4.12,4.12,0,0,1,2.44-.68,6.27,6.27,0,0,1,1.42.19,7.4,7.4,0,0,1,2.55-.41,5.44,5.44,0,0,1,4.39,2.05A2.55,2.55,0,0,1,21.19,6a10.44,10.44,0,0,1-.36,2.36,19.1,19.1,0,0,1-2.45,5.49c.15.12.64.33,2.06,0,.47-.1.75,0,.84.25C21.44,14.68,20.5,15.26,20,15.5Z" style="fill:#010101"/><path d="M17,4.76a6.09,6.09,0,0,1,1.39,2.61.38.38,0,0,1,0,.11,5.43,5.43,0,0,1-.09,1.12,7,7,0,0,0-.1.88,6.63,6.63,0,0,0,.07,1,4,4,0,0,1-.37,2.75l0,0,.06.08c2.26-3.55,3-7.67,2.33-8.57A4.81,4.81,0,0,0,16.5,2.94a7.4,7.4,0,0,0-1.67.16A6.27,6.27,0,0,1,17,4.76Z" style="fill:#010101"/><path d="M18.08,14.37,18,14.31l-.12,0c-.26.07-.51.14-.48.81a1.76,1.76,0,0,0,.94.12,4.15,4.15,0,0,0,1.4-.29,3.15,3.15,0,0,0,.81-.52h0A3.48,3.48,0,0,1,18.08,14.37Z" style="fill:#010101"/><path d="M8.6,13.46A3,3,0,0,1,7.82,11a11.6,11.6,0,0,0,.06-2.34c0-.13,0-.22,0-.28h0A7.06,7.06,0,0,1,9.45,3.73l0,0c-1-.32-3.45-1-5,.1-.92.65-1.34,1.87-1.26,3.61a25.53,25.53,0,0,0,1,4.47c.69,2.26,1.47,3.69,2.15,3.91.1,0,.42.14.87-.41.65-.78,1.26-1.45,1.54-1.74A2.74,2.74,0,0,1,8.6,13.46Z" style="fill:#356892"/><path d="M19.75,15a3.15,3.15,0,0,0,.81-.52h0a3.48,3.48,0,0,1-2.46-.1L18,14.31l-.12,0c-.26.07-.51.14-.48.81a1.76,1.76,0,0,0,.94.12A4.15,4.15,0,0,0,19.75,15Z" style="fill:#356892"/><path d="M12.48,19.9a1.53,1.53,0,0,0,2,1.11,2,2,0,0,0,1.85-1.87c.15-.9.46-3.45.5-4h0c0-1.06.53-1.27.85-1.36l-.15-.2a3.94,3.94,0,0,1-.63-1c0-.07-.12-.24-.23-.43-.59-1.06-1.83-3.27-1-4.41C16,7.24,16.73,7,17.8,7.13a6.38,6.38,0,0,0-1.15-2,5.5,5.5,0,0,0-4.2-2,3.42,3.42,0,0,0-2.59,1,6,6,0,0,0-1.39,3.6l.16-.09A4.14,4.14,0,0,1,10,7.22a1.48,1.48,0,0,1,1.79,1.21,5.76,5.76,0,0,1-.3,4.16c-.06.14-.12.27-.17.4l0,.11a6.79,6.79,0,0,0-.24.74.89.89,0,0,1,.57.07,1.15,1.15,0,0,1,.63.75,1.06,1.06,0,0,1,0,.17s0,.05,0,.09A22.62,22.62,0,0,0,12.48,19.9Z" style="fill:#356892"/><path d="M10.46,13.71a7.42,7.42,0,0,1,.27-.81l0-.11c.05-.15.12-.29.19-.44a5.2,5.2,0,0,0,.27-3.8.86.86,0,0,0-.67-.75,3.13,3.13,0,0,0-2.12.62V8.6a12.12,12.12,0,0,1-.06,2.46,2.4,2.4,0,0,0,.63,2A2,2,0,0,0,10.46,13.71ZM10,8.17a.71.71,0,0,1,.49-.07,1,1,0,0,1,.33.1c.15.09.17.18.16.23a.53.53,0,0,1-.5.34H10.4A.64.64,0,0,1,10,8.52a.35.35,0,0,1-.08-.23A.18.18,0,0,1,10,8.17Z" style="fill:#356892"/><path d="M17.85,7.72c-1.11-.13-1.56.12-1.74.37-.59.85.57,2.92,1.06,3.81.13.23.22.39.26.49a2.47,2.47,0,0,0,.16.29,3.83,3.83,0,0,0,.16-2.15,7.16,7.16,0,0,1-.07-1.07,7.44,7.44,0,0,1,.1-.94A6,6,0,0,0,17.85,7.72Zm-.64.64a.58.58,0,0,1-.33.18h-.06a.48.48,0,0,1-.45-.3c0-.14.21-.25.45-.28s.49,0,.51.15A.36.36,0,0,1,17.21,8.35Z" style="fill:#356892"/><path d="M11.64,15.18a.42.42,0,0,0,0-.36.6.6,0,0,0-.3-.38c-.15-.06-.24-.1-.43.11h0c-.12.14-.22.25-.29.36-.35.44-.51.59-1.54.8a1.85,1.85,0,0,0-.4.12,1.26,1.26,0,0,0,.38.16A2.25,2.25,0,0,0,11.64,15.18Z" style="fill:#356892"/><path d="M17,4.76a6.09,6.09,0,0,1,1.39,2.61.38.38,0,0,1,0,.11,5.43,5.43,0,0,1-.09,1.12,7,7,0,0,0-.1.88,6.63,6.63,0,0,0,.07,1,4,4,0,0,1-.37,2.75l0,0,.06.08c2.26-3.55,3-7.67,2.33-8.57A4.81,4.81,0,0,0,16.5,2.94a7.4,7.4,0,0,0-1.67.16A6.27,6.27,0,0,1,17,4.76Z" style="fill:#356892"/></svg>