<svg xmlns="http://www.w3.org/2000/svg" xmlns:xlink="http://www.w3.org/1999/xlink" viewBox="0 0 24 24"><defs><linearGradient id="a" x1="394.82" y1="-300.7" x2="414.31" y2="-317.47" gradientTransform="matrix(0.56, 0, 0, -0.57, -220.53, -168.26)" gradientUnits="userSpaceOnUse"><stop offset="0" stop-color="#5c9fd3"/><stop offset="1" stop-color="#316a99"/></linearGradient><linearGradient id="b" x1="421.85" y1="-327.62" x2="414.89" y2="-317.77" gradientTransform="matrix(0.56, 0, 0, -0.57, -220.53, -168.26)" gradientUnits="userSpaceOnUse"><stop offset="0" stop-color="#ffd53d"/><stop offset="1" stop-color="#fee875"/></linearGradient></defs><title>python</title><path d="M11.88,2a13.69,13.69,0,0,0-2.29.2c-2,.36-2.4,1.11-2.4,2.49V6.47H12v.61H5.39a3,3,0,0,0-3,2.43,9,9,0,0,0,0,4.87c.34,1.42,1.15,2.43,2.55,2.43H6.6V14.62a3,3,0,0,1,3-3h4.79a2.42,2.42,0,0,0,2.4-2.44V4.64a2.68,2.68,0,0,0-2.4-2.49A15,15,0,0,0,11.88,2ZM9.29,3.42a.91.91,0,1,1-.9.92A.91.91,0,0,1,9.29,3.42Z" style="fill:url(#a)"/><path d="M17.37,7.08V9.21a3.07,3.07,0,0,1-3,3H9.59a2.45,2.45,0,0,0-2.4,2.44v4.56c0,1.3,1.13,2.06,2.4,2.44a8,8,0,0,0,4.79,0c1.21-.35,2.4-1.05,2.4-2.44V17.42H12v-.61h7.19c1.39,0,1.91-1,2.4-2.43a8.23,8.23,0,0,0,0-4.87c-.34-1.39-1-2.43-2.4-2.43ZM14.68,18.64a.91.91,0,1,1-.9.91A.9.9,0,0,1,14.68,18.64Z" style="fill:url(#b)"/></svg>