<svg xmlns="http://www.w3.org/2000/svg" viewBox="0 0 24 24"><title>r</title><path d="M18.76,15.18a1.63,1.63,0,0,0-.54-.63,5.36,5.36,0,0,0-1.11-.46c.23,0,.42-.08.61-.14a3.16,3.16,0,0,0,1.6-1,3.09,3.09,0,0,0,.61-2.42,2.52,2.52,0,0,0-1.21-1.93,3.54,3.54,0,0,0-1.14-.45,3.65,3.65,0,0,0-.78-.09H10.45c-.12,0-.15,0-.15.15q0,3.32,0,6.63c0,.05,0,.11,0,.16q0,1,0,1.92t0,2.07h3.31q0-1,0-1.91s0-.1,0-.15q0-.74,0-1.48c0-.22,0-.44,0-.66,0-.06,0-.09.08-.09h.86A.71.71,0,0,1,15,15a1.53,1.53,0,0,1,.25.34,9.87,9.87,0,0,1,.64,1.13l.94,1.75.4.76H21l-2.08-3.5A2.18,2.18,0,0,1,18.76,15.18Zm-3.12-2.9H13.73c-.09,0-.1,0-.1-.11q0-.82,0-1.64c0-.09,0-.11.11-.11h1.91a.87.87,0,0,1,.9,1.07A.89.89,0,0,1,15.64,12.28Z" style="fill:#3374ba"/><path d="M21.56,9.36a5.35,5.35,0,0,0-1.29-2.25,9,9,0,0,0-3.53-2.27,13.25,13.25,0,0,0-3.4-.77A3.64,3.64,0,0,1,12.77,4h-1.4a1.16,1.16,0,0,1-.4,0,12.49,12.49,0,0,0-2.55.41A10.76,10.76,0,0,0,5.09,6,6.5,6.5,0,0,0,2.8,8.47,4.47,4.47,0,0,0,3.06,13a7.28,7.28,0,0,0,2.66,2.44,11.43,11.43,0,0,0,3,1.17,11.41,11.41,0,0,0,1.22.24V15h0v-.11h0a7.18,7.18,0,0,1-2.5-1.36,3.61,3.61,0,0,1-1.21-1.77,2.8,2.8,0,0,1,.38-2.33A5,5,0,0,1,8.37,7.81a9.51,9.51,0,0,1,3.43-1.13,13,13,0,0,1,2.47-.1,10.71,10.71,0,0,1,3.44.64,5.26,5.26,0,0,1,1.66,1,3.55,3.55,0,0,1,1.19,2.52,3.72,3.72,0,0,1-.74,2.58,4.14,4.14,0,0,1-1.22,1l.07.06h0l.06.06h0l.06.06h0l.06.07h0l0,.07h0l0,.07h0l.09.15A6.23,6.23,0,0,0,21.44,12a4.54,4.54,0,0,0,.23-1,.19.19,0,0,1,0-.1v-.81C21.65,9.87,21.62,9.62,21.56,9.36Z" style="fill:#c3c4c8"/><path d="M14.93,15.55l0,0v0a.66.66,0,0,0-.08-.12l-.87,0h0v1.44l.26,0a13,13,0,0,0,1.29-.27l-.13-.24A5.83,5.83,0,0,0,14.93,15.55Z" style="fill:#c3c4c8"/></svg>