<svg xmlns="http://www.w3.org/2000/svg" viewBox="0 0 24 24"><title>spark</title><path d="M19.26,6c-1.29.32-5,1.29-5,1.29S12.84,5.12,12,3.73a1.47,1.47,0,0,0-2.83.57C8.87,6,8.3,9,8.3,9s-3.2,1.07-4.86,1.59A1.4,1.4,0,0,0,2.72,13c.47.35,4.09,2.21,4.09,2.21s0,1.6,0,4.12c0,2.22,1.69,2.38,3.11.76a26.75,26.75,0,0,1,2.75-2.71s2,.41,4.13,1.08,2.78-1.07,2.26-2.13-2.16-4-2.16-4l3.8-4.44C22,6.31,20.55,5.72,19.26,6Zm-4.61,6,2,4.23-4.37-1.46L8.84,18.22v-4L5.54,12l4.34-1.39,1-4.71,2.21,3.7,4.59-1.27Z" style="fill:#e67225"/></svg>