<svg xmlns="http://www.w3.org/2000/svg" viewBox="0 0 24 24"><title>talend</title><path d="M17.73,7.63a3.73,3.73,0,0,0-1.95.56l-1.63-2a1.21,1.21,0,0,0,.19-.63A1.24,1.24,0,1,0,13.1,6.76a1.19,1.19,0,0,0,.29-.06L15,8.78a3.77,3.77,0,0,0-.49.64h0L4.08,4.58A1.37,1.37,0,1,0,2.73,5.77a1.36,1.36,0,0,0,.9-.35l10.52,4.85h0a3.72,3.72,0,0,0-.14.67H9.65a1.24,1.24,0,1,0,0,1H14a3.72,3.72,0,0,0,.15.65h0l-.73.33a1.24,1.24,0,1,0,.39.9s0,0,0,0h0l.74-.33h0A3.78,3.78,0,0,0,15,14h0l-3.43,4.31a1.2,1.2,0,0,0-.32-.06,1.24,1.24,0,1,0,1.24,1.24,1.21,1.21,0,0,0-.17-.59l3.43-4.32a3.76,3.76,0,1,0,1.93-7Z" style="fill:#0061a0"/></svg>