<svg xmlns="http://www.w3.org/2000/svg" viewBox="0 0 24 24"><title>cpu</title><path d="M20.49,10a.4.4,0,0,0,0-.81H19.28V7.55h1.21a.4.4,0,0,0,0-.81H19.28v-.4a1.62,1.62,0,0,0-1.62-1.62h-.4V3.51a.4.4,0,0,0-.81,0V4.72H14.83V3.51a.4.4,0,0,0-.81,0V4.72H12.4V3.51a.4.4,0,1,0-.81,0V4.72H10V3.51a.4.4,0,0,0-.81,0V4.72H7.55V3.51a.4.4,0,0,0-.81,0V4.72h-.4A1.62,1.62,0,0,0,4.72,6.34v.4H3.51a.4.4,0,1,0,0,.81H4.72V9.17H3.51a.4.4,0,0,0,0,.81H4.72V11.6H3.51a.4.4,0,1,0,0,.81H4.72V14H3.51a.4.4,0,0,0,0,.81H4.72v1.62H3.51a.4.4,0,0,0,0,.81H4.72v.4a1.62,1.62,0,0,0,1.62,1.62h.4v1.21a.4.4,0,0,0,.81,0V19.28H9.17v1.21a.4.4,0,0,0,.81,0V19.28H11.6v1.21a.4.4,0,0,0,.81,0V19.28H14v1.21a.4.4,0,0,0,.81,0V19.28h1.62v1.21a.4.4,0,0,0,.81,0V19.28h.4a1.62,1.62,0,0,0,1.62-1.62v-.4h1.21a.4.4,0,0,0,0-.81H19.28V14.83h1.21a.4.4,0,0,0,0-.81H19.28V12.4h1.21a.4.4,0,0,0,0-.81H19.28V10Zm-2,7.68a.81.81,0,0,1-.81.81H6.34a.81.81,0,0,1-.81-.81V6.34a.81.81,0,0,1,.81-.81H17.66a.81.81,0,0,1,.81.81Z" style="fill:#010101"/><path d="M17.25,6.34H6.75a.4.4,0,0,0-.4.4V17.25a.4.4,0,0,0,.4.4H17.25a.4.4,0,0,0,.4-.4V6.75A.4.4,0,0,0,17.25,6.34Zm-.4,10.51H7.15V7.15h9.7Z" style="fill:#010101"/><path d="M9.57,13.21h1.62v2.43a.4.4,0,0,0,.29.39l.11,0a.4.4,0,0,0,.34-.19l2.83-4.45a.4.4,0,0,0-.34-.62H12.81V8.36a.4.4,0,0,0-.75-.22L9.23,12.59a.4.4,0,0,0,.34.62ZM12,9.75v1.44a.4.4,0,0,0,.4.4h1.28L12,14.25V12.81a.4.4,0,0,0-.4-.4H10.31Z" style="fill:#010101"/></svg>