<svg xmlns="http://www.w3.org/2000/svg" viewBox="0 0 24 24"><title>disk</title><path d="M17.81,2H6.19A1.66,1.66,0,0,0,4.53,3.7V20.3A1.66,1.66,0,0,0,6.19,22H17.81a1.66,1.66,0,0,0,1.66-1.66V3.7A1.66,1.66,0,0,0,17.81,2Zm.83,18.26a.83.83,0,0,1-.83.83H6.19a.83.83,0,0,1-.83-.83V3.7a.83.83,0,0,1,.83-.83H17.81a.83.83,0,0,1,.83.83Z" style="fill:#010101"/><path d="M12,4.53a5.81,5.81,0,0,0,0,11.62c.39.89.77,1.78,1,2.28a1.7,1.7,0,0,0,.37.55,1.66,1.66,0,1,0,2.33-2.37l-1.18-1A5.8,5.8,0,0,0,12,4.53Zm3.32,13.28a.83.83,0,0,1-1.42.59.87.87,0,0,1-.18-.29c-.29-.7-.92-2.16-1.43-3.33l2.79,2.44A.83.83,0,0,1,15.32,17.81ZM13.77,15l-2.33-2a.42.42,0,0,0-.65.48l.82,1.89A5,5,0,1,1,13.77,15Z" style="fill:#010101"/><path d="M12,7.85a2.49,2.49,0,1,0,2.49,2.49A2.49,2.49,0,0,0,12,7.85ZM12,12a1.66,1.66,0,1,1,1.66-1.66A1.66,1.66,0,0,1,12,12Z" style="fill:#010101"/><circle cx="7.85" cy="18.64" r="0.83" style="fill:#010101"/></svg>