<svg xmlns="http://www.w3.org/2000/svg" viewBox="0 0 24 24"><title>governance</title><path d="M8.09,13.15c0,.34.35.82.57.82l.07,0a3,3,0,0,0,.57.74h1.63a2.43,2.43,0,0,0,.49-.76.17.17,0,0,0,.09,0c.22,0,.47-.48.48-.82s0-.63-.26-.63h-.08c0-1-.28-2.32-1.8-2.32s-1.62,1.33-1.52,2.32H8.27c-.23,0-.22.28-.18.63Zm0,0"/><path d="M16.65,12l.1-.63a.34.34,0,0,0-.32-.41H11.84a3.67,3.67,0,0,1,.26,1.16.64.64,0,0,1,.22.28h3.91a.46.46,0,0,0,.43-.39Zm0,0"/><path d="M15.89,14.72a.41.41,0,0,0,.39-.33l.08-.54a.3.3,0,0,0-.3-.35H12.38a1.21,1.21,0,0,1-.68.86l0,.05v.31Zm0,0"/><path d="M5.66,14.53l-.75-5A1.12,1.12,0,0,1,6,8.39H17.45a1.12,1.12,0,0,1,1.12,1.12l-.67,5h1l.67-5a2.12,2.12,0,0,0-2.12-2.12H6A2.12,2.12,0,0,0,3.91,9.51l.75,5Zm0,0"/><path d="M4.49,15.18a.72.72,0,0,0-.54.25.71.71,0,0,0-.17.57l.59,4H19.16l.58-4a.72.72,0,0,0-.71-.82Zm0,0"/><path d="M16.75,6.59l.18-.78a.27.27,0,0,0-.26-.33H6.41a.27.27,0,0,0-.26.34l.19.77Zm0,0"/><path d="M15.72,4.86l.15-.8a.26.26,0,0,0-.06-.22.26.26,0,0,0-.21-.1H7.47a.27.27,0,0,0-.26.32l.16.79Zm0,0"/></svg>