<svg xmlns="http://www.w3.org/2000/svg" viewBox="0 0 24 24"><title>memory</title><path d="M21.51,8.91,17.26,4.66a.4.4,0,0,0-.57,0A.42.42,0,0,1,16,4.38a.4.4,0,0,1,.12-.28.4.4,0,0,0,0-.57l-1-1a.4.4,0,0,0-.57,0l-12,12a.4.4,0,0,0,0,.57l1,1a.4.4,0,0,0,.57,0,.42.42,0,0,1,.68.28.4.4,0,0,1-.12.28.4.4,0,0,0,0,.57l4.25,4.25a.4.4,0,0,0,.57,0l3.23-3.23a.4.4,0,0,0,0-.57l-.95-.94a.14.14,0,1,1,.2-.2l.95.95a.4.4,0,0,0,.57,0l8-8A.4.4,0,0,0,21.51,8.91ZM20,9.83l-.92-.92a.4.4,0,0,0-.57.57l.92.92-.64.64-.92-.92a.4.4,0,1,0-.57.57l.92.92-.64.64-.92-.92a.4.4,0,0,0-.57.57l.92.92-.64.64-.92-.92a.4.4,0,1,0-.57.57l.92.92-.64.64-.92-.92a.4.4,0,0,0-.57.57l.92.92-.64.64-.92-.92a.4.4,0,0,0-.57.57l.92.92-.25.25L12.52,16a.94.94,0,0,0-1.33,1.33h0l.66.66-.25.25-.92-.92a.4.4,0,1,0-.57.57l.92.92-.64.64-.92-.92a.4.4,0,0,0-.57.57l.92.92-.64.64L5.47,16.93a1.2,1.2,0,0,0-1.61-1.61l-.52-.52L14.81,3.34l.52.52a1.2,1.2,0,0,0,1.61,1.61l3.73,3.73Z" style="fill:#010101"/><path d="M8.27,12.52a.4.4,0,0,0-.57,0l-2,2a.4.4,0,0,0,0,.57L8.11,17.5a.4.4,0,0,0,.57,0l2-2a.4.4,0,0,0,0-.57Zm.12,4.13L6.55,14.81,8,13.37l1.84,1.84Z" style="fill:#010101"/><path d="M11.68,9.11a.4.4,0,0,0-.57,0l-2,2a.4.4,0,0,0,0,.57l2.41,2.41a.4.4,0,0,0,.57,0l2-2a.4.4,0,0,0,0-.57Zm.12,4.13L10,11.4,11.4,10l1.84,1.84Z" style="fill:#010101"/><path d="M14.52,5.7l-2,2a.4.4,0,0,0,0,.57l2.41,2.41a.4.4,0,0,0,.57,0l2-2a.4.4,0,0,0,0-.57L15.09,5.7A.4.4,0,0,0,14.52,5.7Zm.68,4.13L13.37,8l1.44-1.44,1.84,1.84Z" style="fill:#010101"/></svg>