<svg xmlns="http://www.w3.org/2000/svg" viewBox="0 0 24 24"><title>monitoring</title><path d="M17.86,5.32v.76h-3V5.32ZM16.62,7H14.91v.76h1.72ZM14.91,9.41h3V8.65h-3Zm1.72.9H14.91v.76h1.72Zm-1.72,2.43h3V12h-3Zm.46,4.35a3.87,3.87,0,1,1-5.82-3.33V5a2,2,0,1,1,3.91,0v8.76a3.85,3.85,0,0,1,1.91,3.33Zm-.76,0a3.09,3.09,0,0,0-1.7-2.76l-.21-.11V5a1.19,1.19,0,0,0-2.39,0v9.22l-.21.11a3.1,3.1,0,1,0,4.5,2.76Zm-.64,0a2.47,2.47,0,1,1-3.1-2.38l.14,0V10h1v4.71l.14,0A2.47,2.47,0,0,1,14,17.09Zm-2.64-1.41a.36.36,0,0,0-.43-.27,1.47,1.47,0,0,0-1.15,1.44.36.36,0,1,0,.71,0,.77.77,0,0,1,.59-.74.36.36,0,0,0,.27-.43Zm.3-.24"/></svg>