<svg xmlns="http://www.w3.org/2000/svg" viewBox="0 0 24 24"><title>operations</title><path d="M12,12.83A4.68,4.68,0,0,0,16,8c0-.48,0-.94-.05-1.38a4.13,4.13,0,0,0-.68-2.21c-.56-.8-1.55-1.28-3.26-1.28s-2.7.49-3.26,1.28a4.13,4.13,0,0,0-.68,2.21C8,7,8,7.48,8,8a4.68,4.68,0,0,0,4,4.87Zm1.3-8L13,5.6a3.3,3.3,0,0,0-2,0l-.29-.74a4.09,4.09,0,0,1,2.61,0ZM8.6,7.21c0,.1.24.49.54.52S10.07,6.5,12,6.5s2.51,1.28,2.86,1.24.5-.42.54-.52c0,.25,0,.5,0,.75A4.35,4.35,0,0,1,14,11.26a3.49,3.49,0,0,1-2,1,3.49,3.49,0,0,1-2-1A4.35,4.35,0,0,1,8.59,8c0-.25,0-.5,0-.75Zm0,0"/><path d="M19.42,17.83c-.2-1.27-.62-2.9-1.47-3.48-.58-.4-2.58-1.47-3.44-1.93h0a.28.28,0,0,0-.3,0,3.64,3.64,0,0,1-1.46.71.28.28,0,0,0-.2.17L12,14.71l-.53-1.4a.28.28,0,0,0-.2-.17,3.64,3.64,0,0,1-1.46-.71.28.28,0,0,0-.31,0c-.85.45-2.88,1.55-3.45,1.93-1,.65-1.39,3-1.47,3.48a.28.28,0,0,0,0,.14c0,.06.34.89,1.95,1.56a.8.8,0,0,1,.35-.25.79.79,0,0,1-.43-1.13,2.34,2.34,0,0,1,4-.18h3.06a2.35,2.35,0,0,1,1.95-1h0a2.35,2.35,0,0,1,2.06,1.22.79.79,0,0,1-.43,1.13.8.8,0,0,1,.36.26c1.6-.67,1.92-1.5,1.94-1.55a.28.28,0,0,0,0-.14Zm0,0"/><path d="M16.84,19.91H15.37a1.79,1.79,0,0,1-.08-.65,1.8,1.8,0,0,1,.08-.65h1.47a.1.1,0,0,0,.09-.15,1.65,1.65,0,0,0-3,.18H10.06a1.65,1.65,0,0,0-3-.18.1.1,0,0,0,.09.15H8.63a1.79,1.79,0,0,1,.08.65,1.8,1.8,0,0,1-.07.65H7.16a.1.1,0,0,0-.09.15,1.65,1.65,0,0,0,1.45.86h0a1.65,1.65,0,0,0,1.53-1h3.89a1.66,1.66,0,0,0,1.53,1h0a1.65,1.65,0,0,0,1.45-.86.1.1,0,0,0-.09-.15Zm0,0"/></svg>