<svg xmlns="http://www.w3.org/2000/svg" viewBox="0 0 24 24"><title>project</title><path d="M5.22,6.73H18.81V9.78H20V5.7a.5.5,0,0,0-.55-.43H10l-.77-1a.59.59,0,0,0-.47-.21H4.53A.5.5,0,0,0,4,4.48v5.3H5.22Zm0,0"/><path d="M6.27,9.38a.45.45,0,0,0,.45.45H17.3a.45.45,0,1,0,0-.9H6.72a.45.45,0,0,0-.45.45Z"/><path d="M6.85,7.85a.34.34,0,0,0,.34.34h9.66a.34.34,0,0,0,0-.68H7.18a.34.34,0,0,0-.34.34Z"/><path d="M21.16,10.85a.41.41,0,0,0-.3-.12H3.14a.41.41,0,0,0-.3.12.33.33,0,0,0-.09.29l1.52,8.51a.38.38,0,0,0,.39.3H19.34a.38.38,0,0,0,.39-.3l1.52-8.51A.33.33,0,0,0,21.16,10.85Zm-4,3.91-.39,2.58a.64.64,0,0,1-.65.52H11.87a.64.64,0,0,1-.66-.52l-.35-2.58a.62.62,0,0,1,.66-.67h5A.62.62,0,0,1,17.16,14.76Z"/><path d="M12.32,15.19h1.23a.28.28,0,1,1,0,.56H12.32a.28.28,0,1,1,0-.56Zm3.4,1.68h-3.4a.28.28,0,1,1,0-.56h3.4a.28.28,0,1,1,0,.56Zm0,0"/></svg>