<svg xmlns="http://www.w3.org/2000/svg" viewBox="0 0 24 24"><title>security</title><path d="M16.55,11.65h0a.43.43,0,0,0-.5.35l-.49,2.86a.43.43,0,0,0,.35.5H16a.43.43,0,0,0,.42-.36l.49-2.86A.43.43,0,0,0,16.55,11.65Z"/><path d="M15.09,7.24l1.68.58-.25,1.49a.43.43,0,0,0,.35.5h.07a.43.43,0,0,0,.43-.36l.32-1.85a.43.43,0,0,0-.28-.48l-2-.7a.43.43,0,0,0-.28.82Z"/><path d="M12.63,6.33,14,6.8l.14,0A.43.43,0,0,0,14.26,6l-1.34-.47a.45.45,0,0,0-.33,0,.43.43,0,0,0-.22.25A.43.43,0,0,0,12.63,6.33Z"/><path d="M9.6,15.14H14.4a.37.37,0,0,0,.37-.37V13.44a2.76,2.76,0,0,0-1.93-2.63,1.83,1.83,0,1,0-1.68,0,2.76,2.76,0,0,0-1.93,2.63v1.33A.37.37,0,0,0,9.6,15.14Z"/><path d="M4.92,6a.41.41,0,0,0-.27.46L6.3,16.16a.41.41,0,0,0,.17.27l5.29,3.7a.42.42,0,0,0,.24.07.41.41,0,0,0,.24-.07l5.29-3.7a.41.41,0,0,0,.17-.27l1.66-9.67A.41.41,0,0,0,19.08,6l-6.94-2.4a.41.41,0,0,0-.27,0Zm.61.67L12,4.45l6.48,2.24-1.57,9.16L12,19.28,7.09,15.85Z"/><path d="M20.88,4.87l-8.74-3a.43.43,0,0,0-.28,0l-8.74,3a.43.43,0,0,0-.28.48l2,11.76a.42.42,0,0,0,.18.28l6.72,4.7a.43.43,0,0,0,.5,0L19,17.39a.43.43,0,0,0,.18-.28l2-11.76A.43.43,0,0,0,20.88,4.87Zm-.63.7L18.32,16.79,12,21.22,5.68,16.79,3.75,5.57,12,2.71Z"/></svg>