<svg xmlns="http://www.w3.org/2000/svg" viewBox="0 0 24 24"><path d="M8.86,19H5.5a.19.19,0,0,1-.15-.06A8.31,8.31,0,0,1,3.7,16.57a7.51,7.51,0,0,1-.63-2,7.1,7.1,0,0,1-.09-1c0-.1,0-.2,0-.29a8.64,8.64,0,0,1,.13-1.34A7.66,7.66,0,0,1,3.8,9.88,8.13,8.13,0,0,1,4.89,8.26,9,9,0,0,1,7.12,6.4a9.65,9.65,0,0,1,1.57-.75.1.1,0,0,1,.08,0A9.13,9.13,0,0,0,6.49,9.74a.09.09,0,0,0,.07,0H12s0,0,0,0,0-.06,0-.09c0-.67,0-1.35,0-2S12,6,12,5.14c0-.12,0-.1.1-.1h.68a6.07,6.07,0,0,1,1,.09,9.7,9.7,0,0,1,1.32.29h0a0,0,0,0,1,0,0s0,0,0,.05q0,6.67,0,13.34c0,.11,0,.1-.1.1h-3c-.11,0-.1,0-.1-.1q0-2,0-4.05c0-.11,0-.1-.1-.1H6.49A8.68,8.68,0,0,0,7.4,17a9.71,9.71,0,0,0,1.47,2Z" style="fill:#2c88c5"/><path d="M16.22,5.82,16.6,6a8.39,8.39,0,0,1,.83.5,8.27,8.27,0,0,1,.81.63c.15.13.3.27.44.42a8.51,8.51,0,0,1,1.23,1.6,8.21,8.21,0,0,1,.75,1.68A7.85,7.85,0,0,1,20.93,12c0,.21.06.42.08.64a7.66,7.66,0,0,1,0,1.06,7.82,7.82,0,0,1-.12,1.05,8.27,8.27,0,0,1-1.77,3.84l-.3.35a.08.08,0,0,1-.07,0H17a.13.13,0,0,1-.07,0s0,0,0,0a2.77,2.77,0,0,0,.71-1.08,4.57,4.57,0,0,0,.26-1c0-.14,0-.27,0-.41s0-.28,0-.42a5.39,5.39,0,0,0-.09-.87,4.48,4.48,0,0,0-.25-.88,2.83,2.83,0,0,0-.55-.89,1.44,1.44,0,0,0-.71-.44l-.12,0a0,0,0,0,1,0,0s0,0,0-.06q0-3.43,0-6.87A.21.21,0,0,1,16.22,5.82Zm1.55,3.74s0,0-.06.06a.38.38,0,0,1-.52,0A.47.47,0,0,1,17,9.19.37.37,0,0,1,17.15,9c0,.1,0,.19.13.22a.15.15,0,0,0,.18,0,.22.22,0,0,0,0-.3.43.43,0,0,1,.29.13.53.53,0,0,0-.15-.2.59.59,0,0,0-.87.06.75.75,0,0,0-.17.51.72.72,0,0,0,.24.54.57.57,0,0,0,.42.15.59.59,0,0,0,.38-.17A.67.67,0,0,0,17.77,9.55Z" style="fill:#ae90c0"/></svg>