<svg xmlns="http://www.w3.org/2000/svg" viewBox="0 0 24 24"><title>user</title><path d="M17.51,14.47a.66.66,0,0,0-.39-.68l-2.67-1.29L13.32,12A2.74,2.74,0,0,0,14,11.4a3.29,3.29,0,0,0,.49-.8,5.15,5.15,0,0,0,.24-.73,3.35,3.35,0,0,0,.1-.82,3.31,3.31,0,0,0,0-.44,4,4,0,0,0-.08-.44,3.32,3.32,0,0,0-1-1.74,2.56,2.56,0,0,0-3.44,0,3.26,3.26,0,0,0-1,1.67,3.58,3.58,0,0,0-.14,1,3.83,3.83,0,0,0,.37,1.63A3.31,3.31,0,0,0,10.65,12l-1.07.51L6.83,13.77a.71.71,0,0,0-.42.7v3a.77.77,0,0,0,.18.52.59.59,0,0,0,.46.21h9.84a.56.56,0,0,0,.44-.21.77.77,0,0,0,.18-.52Z"/></svg>