<svg xmlns="http://www.w3.org/2000/svg" viewBox="0 0 24 24"><title>users</title><path d="M21.08,14a.59.59,0,0,0-.31-.56L17.71,12a2.43,2.43,0,0,0,.86-1,3,3,0,0,0,.32-1.41,2.84,2.84,0,0,0-.66-1.88,2,2,0,0,0-1.62-.79,1.76,1.76,0,0,0-.63.11,2.75,2.75,0,0,0-.55.28A5,5,0,0,1,15.74,9a4.5,4.5,0,0,1-.73,2.5l.27.25a1.77,1.77,0,0,0,.27.2l2,.93a1.75,1.75,0,0,1,.67.63,1.7,1.7,0,0,1,.25.91v2.59h2.11a.44.44,0,0,0,.37-.18.69.69,0,0,0,.14-.44Zm-3.57.48a.66.66,0,0,0-.39-.68l-2.67-1.29L13.32,12A2.74,2.74,0,0,0,14,11.4a3.29,3.29,0,0,0,.49-.8,5.15,5.15,0,0,0,.24-.73,3.35,3.35,0,0,0,.1-.82,3.31,3.31,0,0,0,0-.44,4,4,0,0,0-.08-.44,3.32,3.32,0,0,0-1-1.74,2.56,2.56,0,0,0-3.44,0,3.26,3.26,0,0,0-1,1.67,3.58,3.58,0,0,0-.14,1,3.83,3.83,0,0,0,.37,1.63A3.31,3.31,0,0,0,10.65,12l-1.07.51L6.83,13.77a.71.71,0,0,0-.42.7v3a.77.77,0,0,0,.18.52.59.59,0,0,0,.46.21h9.84a.56.56,0,0,0,.44-.21.77.77,0,0,0,.18-.52Zm-12,0a1.7,1.7,0,0,1,.25-.91,1.75,1.75,0,0,1,.67-.63l2.08-1a1.55,1.55,0,0,0,.45-.39,4.29,4.29,0,0,1-.56-1.18A4.61,4.61,0,0,1,8.18,9a4.13,4.13,0,0,1,.1-.91,7.11,7.11,0,0,1,.24-.83,1.88,1.88,0,0,0-1.12-.37,2,2,0,0,0-1.62.79,2.84,2.84,0,0,0-.66,1.88A3,3,0,0,0,5.45,11a2.44,2.44,0,0,0,.9,1L3.23,13.43a.55.55,0,0,0-.31.56v2.45a.69.69,0,0,0,.14.44.44.44,0,0,0,.37.18H5.48Z"/></svg>